<svg class="information-icon" width="18" height="18" viewBox="0 0 18 18" fill="none" preserveAspectRatio="xMidYMid meet"><path d="M9 15.2C5.57583 15.2 2.8 12.4242 2.8 9C2.8 5.57583 5.57583 2.8 9 2.8C12.4242 2.8 15.2 5.57583 15.2 9C15.2 12.4242 12.4242 15.2 9 15.2ZM9 16.5C13.1421 16.5 16.5 13.1421 16.5 9C16.5 4.85786 13.1421 1.5 9 1.5C4.85786 1.5 1.5 4.85786 1.5 9C1.5 13.1421 4.85786 16.5 9 16.5Z" fill="currentColor"></path><path d="M8.35 6.375V5.25H9.65V6.375H8.35Z" fill="currentColor"></path><path d="M8.35 12.75V7.125H9.65V12.75H8.35Z" fill="currentColor"></path></svg>