<svg class="delivery-time-icon" width="24" height="24" fill="none" preserveAspectRatio="xMidYMid meet"><path fill-rule="evenodd" clip-rule="evenodd" d="M13.303 5.04l.394.92L7 8.83V12a.5.5 0 01-1 0V8.17l7.303-3.13z" fill="#00B8F0"></path><path fill-rule="evenodd" clip-rule="evenodd" d="M10.197 4.628a.5.5 0 00-.394 0L4.269 7 10 9.456 15.73 7l-2.427-1.04-3.106-1.332zM3.5 14.341V7.758l6 2.572v6.912L3.803 14.8a.5.5 0 01-.303-.46zm7 2.9l1.534-.657a5 5 0 014.466-5.56V7.759l-6 2.572v6.912zm.09 1.05l1.664-.713A5.002 5.002 0 0022 16a5 5 0 00-4.5-4.975V7.659a1.5 1.5 0 00-.91-1.378l-2.893-1.24-3.106-1.332a1.5 1.5 0 00-1.182 0l-6 2.572A1.5 1.5 0 002.5 7.659v6.682c0 .6.358 1.142.91 1.378l6 2.572a1.5 1.5 0 001.18 0zM17 20a4 4 0 100-8 4 4 0 000 8zm.5-6.5a.5.5 0 00-1 0v2H15a.5.5 0 000 1h2a.5.5 0 00.5-.5v-2.5z" fill="#3F474D"></path></svg>